<svg id="web_design" data-name="web design" xmlns="http://www.w3.org/2000/svg" width="49.219" height="49.219" viewBox="0 0 49.219 49.219">
  <path id="Path_2" data-name="Path 2" d="M306.961,346a.961.961,0,1,0,.961.961A.962.962,0,0,0,306.961,346Zm0,0" transform="translate(-276.584 -312.738)" fill="#27debf"/>
  <path id="Path_3" data-name="Path 3" d="M44.413,0H4.807A4.812,4.812,0,0,0,0,4.807V34.223a4.812,4.812,0,0,0,4.807,4.807h15v4.422h-.961a4.808,4.808,0,0,0-4.807,4.807.961.961,0,0,0,.961.961H34.223a.961.961,0,0,0,.961-.961,4.812,4.812,0,0,0-4.807-4.807h-.961V39.029h15a4.812,4.812,0,0,0,4.807-4.807V4.807A4.812,4.812,0,0,0,44.413,0ZM4.807,1.923H44.413A2.887,2.887,0,0,1,47.3,4.807v24.61H42.875V7.306a.961.961,0,0,0-.961-.961H34.223a.961.961,0,0,0-.961.961v22.11H28.45c-.01-.994-.036-1.974-.077-2.925a61.833,61.833,0,0,0-.751-7.691,4.807,4.807,0,0,0,1.312-6.27L25.6,6.759a.961.961,0,0,0-1.665,0L20.6,12.53A4.806,4.806,0,0,0,21.661,18.6a61.023,61.023,0,0,0-.81,7.893c-.043.961-.071,1.942-.081,2.927H15.958V15a.956.956,0,0,0-.1-.415s0-.01-.006-.015L12.011,6.876a.962.962,0,0,0-1.72,0L6.446,14.567l-.006.015a.955.955,0,0,0-.1.415v14.42H1.923V4.807A2.887,2.887,0,0,1,4.807,1.923ZM35.184,29.416V8.267h5.768V10.19h-.961a.961.961,0,0,0,0,1.923h.961V15h-.961a.961.961,0,0,0,0,1.923h.961V19.8h-.961a.961.961,0,0,0,0,1.923h.961v3.845h-.961a.961.961,0,1,0,0,1.923h.961v1.923Zm-10.415-9.68a4.813,4.813,0,0,0,1.037-.115c.178,1.143.44,3.167.6,5.95H22.824c.163-2.781.437-4.836.627-6.018a4.812,4.812,0,0,0,1.319.184Zm0-1.923a2.888,2.888,0,0,1-2.5-4.323l2.5-4.329,2.5,4.329a2.886,2.886,0,0,1-2.5,4.323Zm-2.034,9.68h3.751c.02.632.034,1.274.041,1.923H22.692C22.7,28.772,22.714,28.129,22.735,27.494ZM12.113,29.416V15.958h1.923V29.416Zm-3.845,0V15.958H10.19V29.416Zm.594-15.381,2.29-4.58,2.29,4.58ZM33.1,47.3H16.121a2.89,2.89,0,0,1,2.72-1.923H30.378A2.888,2.888,0,0,1,33.1,47.3Zm-5.6-3.845H21.726V39.029h5.768Zm16.919-6.345H4.807a2.887,2.887,0,0,1-2.884-2.884V31.339H47.3v2.884A2.887,2.887,0,0,1,44.413,37.107Zm0,0" fill="#27debf"/>
  <path id="Path_4" data-name="Path 4" d="M212.729,346h-5.768a.961.961,0,1,0,0,1.923h5.768a.961.961,0,1,0,0-1.923Zm0,0" transform="translate(-186.197 -312.738)" fill="#27debf"/>
</svg>
